<svg xmlns="http://www.w3.org/2000/svg" xmlns:xlink="http://www.w3.org/1999/xlink" width="100" zoomAndPan="magnify" viewBox="0 0 75 37.5" height="50" preserveAspectRatio="xMidYMid meet" version="1.0"><defs><clipPath id="198fee0b68"><path d="M 0.492188 0 L 74.503906 0 L 74.503906 37.007812 L 0.492188 37.007812 Z M 0.492188 0 " clip-rule="nonzero"/></clipPath><clipPath id="ed02e804c9"><path d="M 0.492188 0 L 74.503906 0 L 74.503906 37 L 0.492188 37 Z M 0.492188 0 " clip-rule="nonzero"/></clipPath></defs><g clip-path="url(#198fee0b68)"><path fill="#ffffff" d="M 0.492188 0 L 74.507812 0 L 74.507812 37.007812 L 0.492188 37.007812 Z M 0.492188 0 " fill-opacity="1" fill-rule="nonzero"/><path fill="#ffffff" d="M 0.492188 0 L 74.507812 0 L 74.507812 37.007812 L 0.492188 37.007812 Z M 0.492188 0 " fill-opacity="1" fill-rule="nonzero"/></g><g clip-path="url(#ed02e804c9)"><path fill="#ffffff" d="M 0.535156 0 L 74.464844 0 L 74.464844 36.820312 L 0.535156 36.820312 Z M 0.535156 0 " fill-opacity="1" fill-rule="nonzero"/></g><path fill="#111c23" d="M 35.585938 12.238281 L 35.949219 12.273438 L 36.128906 12.417969 L 36.238281 12.671875 L 36.238281 13.105469 L 36.054688 13.824219 L 35.730469 14.585938 L 35.40625 15.269531 L 34.972656 16.0625 L 34.574219 16.785156 L 34.503906 16.964844 L 34.429688 17.6875 L 34.429688 19.855469 L 34.46875 20.539062 L 34.46875 21.011719 L 34.613281 20.9375 L 34.757812 20.578125 L 35.226562 18.699219 L 35.550781 17.726562 L 35.839844 17.148438 L 35.984375 16.964844 L 36.34375 16.75 L 36.777344 16.75 L 36.996094 16.894531 L 37.210938 17.148438 L 37.320312 17.4375 L 37.320312 18.121094 L 37.140625 19.097656 L 36.777344 20.683594 L 36.597656 21.730469 L 36.5625 22.128906 L 36.777344 22.09375 L 36.957031 21.914062 L 37.210938 21.625 L 37.5 21.226562 L 37.96875 20.46875 L 38.332031 19.820312 L 38.617188 19.242188 L 38.726562 18.84375 L 38.90625 17.363281 L 39.015625 16.929688 L 39.195312 16.785156 L 39.304688 16.75 L 39.558594 16.75 L 39.882812 16.929688 L 39.917969 17.148438 L 39.773438 18.375 L 39.738281 18.808594 L 39.738281 19.964844 L 39.808594 20.539062 L 39.953125 20.828125 L 40.207031 20.902344 L 40.53125 20.722656 L 40.855469 20.394531 L 41.21875 19.855469 L 41.433594 19.492188 L 41.652344 19.023438 L 41.6875 18.773438 L 41.796875 17.363281 L 41.902344 16.460938 L 42.011719 16.28125 L 42.085938 16.207031 L 42.445312 16.207031 L 42.734375 16.316406 L 42.769531 16.351562 L 42.769531 16.964844 L 42.664062 18.339844 L 42.664062 18.664062 L 43.09375 17.761719 L 43.347656 17.363281 L 43.636719 17.074219 L 43.925781 16.894531 L 44.179688 16.785156 L 44.394531 16.75 L 44.757812 16.75 L 45.117188 16.859375 L 45.40625 17.074219 L 45.621094 17.507812 L 45.660156 18.085938 L 45.550781 19.023438 L 45.1875 20.902344 L 45.117188 21.441406 L 45.117188 22.203125 L 45.226562 22.488281 L 45.332031 22.5625 L 45.515625 22.5625 L 45.765625 22.238281 L 46.054688 21.660156 L 46.597656 20.359375 L 46.921875 19.636719 L 47.101562 19.023438 L 47.210938 18.265625 L 47.320312 17.328125 L 47.425781 16.894531 L 47.570312 16.75 L 47.898438 16.75 L 48.183594 16.859375 L 48.292969 17.003906 L 48.292969 17.398438 L 48.183594 18.121094 L 48.113281 19.3125 L 48.113281 19.820312 L 48.183594 20.433594 L 48.328125 20.792969 L 48.472656 20.902344 L 48.691406 20.867188 L 48.90625 20.722656 L 49.195312 20.433594 L 49.628906 19.78125 L 49.917969 19.3125 L 50.0625 18.988281 L 50.097656 18.84375 L 50.207031 17.148438 L 50.277344 16.28125 L 49.59375 15.917969 L 49.414062 15.777344 L 49.375 15.59375 L 49.484375 15.523438 L 49.808594 15.59375 L 50.242188 15.847656 L 50.351562 15.882812 L 50.386719 15.304688 L 50.460938 15.089844 L 50.53125 15.054688 L 50.929688 15.054688 L 51.289062 15.160156 L 51.363281 15.234375 L 51.363281 15.558594 L 51.289062 16.101562 L 51.832031 16.027344 L 52.265625 15.917969 L 52.734375 15.667969 L 53.09375 15.34375 L 53.417969 15.089844 L 53.671875 15.054688 L 53.671875 15.269531 L 53.203125 15.738281 L 52.660156 16.136719 L 52.15625 16.351562 L 51.796875 16.425781 L 51.324219 16.460938 L 51.253906 16.496094 L 51.144531 18.375 L 51.144531 21.011719 L 51.21875 21.371094 L 51.398438 21.550781 L 51.613281 21.550781 L 52.085938 21.117188 L 52.480469 20.683594 L 53.347656 19.53125 L 53.492188 19.347656 L 53.636719 19.023438 L 53.671875 18.808594 L 53.78125 17.003906 L 53.925781 15.703125 L 54.070312 14.871094 L 54.285156 14.078125 L 54.503906 13.539062 L 54.792969 13.03125 L 55.042969 12.707031 L 55.40625 12.417969 L 55.765625 12.273438 L 56.273438 12.273438 L 56.488281 12.453125 L 56.597656 12.777344 L 56.5625 13.210938 L 56.34375 13.933594 L 55.910156 14.910156 L 55.515625 15.738281 L 55.042969 16.570312 L 54.863281 16.894531 L 54.792969 17.398438 L 54.753906 17.976562 L 54.753906 19.820312 L 54.792969 20.359375 L 54.792969 20.972656 L 54.972656 20.902344 L 55.117188 20.578125 L 55.515625 18.953125 L 55.800781 17.941406 L 56.089844 17.253906 L 56.273438 17.003906 L 56.597656 16.785156 L 56.667969 16.75 L 57.101562 16.75 L 57.355469 16.894531 L 57.535156 17.109375 L 57.644531 17.398438 L 57.644531 18.15625 L 57.464844 19.167969 L 57.101562 20.828125 L 56.957031 21.769531 L 56.957031 22.128906 L 57.175781 22.09375 L 57.570312 21.585938 L 58.003906 20.972656 L 58.511719 20.144531 L 58.835938 19.566406 L 59.050781 18.917969 L 59.195312 18.445312 L 59.414062 18.015625 L 59.738281 17.582031 L 60.097656 17.21875 L 60.566406 16.929688 L 61.109375 16.785156 L 61.578125 16.824219 L 62.011719 16.929688 L 62.191406 17.109375 L 62.226562 17.253906 L 62.15625 17.328125 L 61.507812 17.328125 L 61.144531 17.507812 L 60.785156 17.871094 L 60.496094 18.339844 L 60.242188 18.878906 L 60.097656 19.457031 L 60.097656 20.324219 L 60.242188 20.722656 L 60.351562 20.867188 L 60.566406 20.867188 L 60.855469 20.613281 L 61.179688 20.109375 L 61.46875 19.566406 L 61.9375 18.484375 L 62.265625 17.726562 L 62.554688 17.21875 L 62.734375 17.074219 L 62.949219 17.109375 L 63.203125 17.253906 L 63.347656 17.398438 L 63.417969 17.796875 L 63.382812 18.554688 L 63.203125 20 L 63.09375 20.828125 L 63.058594 21.296875 L 63.058594 21.984375 L 63.09375 22.09375 L 63.273438 21.914062 L 63.601562 21.226562 L 64.175781 19.925781 L 64.539062 19.097656 L 64.609375 18.917969 L 64.753906 18.808594 L 64.828125 18.953125 L 64.648438 19.566406 L 64.285156 20.578125 L 63.746094 21.839844 L 63.417969 22.417969 L 63.09375 22.851562 L 62.804688 23.066406 L 62.625 23.105469 L 62.410156 22.960938 L 62.226562 22.671875 L 62.121094 22.238281 L 62.082031 21.914062 L 62.082031 21.335938 L 62.191406 20.144531 L 62.371094 18.917969 L 62.515625 18.085938 L 62.226562 18.734375 L 61.832031 19.636719 L 61.398438 20.46875 L 60.964844 21.046875 L 60.710938 21.296875 L 60.277344 21.515625 L 59.953125 21.550781 L 59.664062 21.40625 L 59.414062 21.15625 L 59.230469 20.792969 L 59.050781 20.179688 L 58.980469 20.035156 L 58.617188 20.722656 L 58.328125 21.261719 L 58.003906 21.769531 L 57.714844 22.164062 L 57.464844 22.488281 L 57.175781 22.777344 L 56.886719 22.960938 L 56.777344 22.996094 L 56.488281 22.996094 L 56.273438 22.851562 L 56.089844 22.597656 L 55.984375 22.238281 L 55.945312 21.984375 L 55.945312 21.335938 L 56.128906 20.035156 L 56.453125 18.519531 L 56.667969 17.652344 L 56.667969 17.363281 L 56.488281 17.472656 L 56.164062 18.085938 L 55.910156 18.84375 L 55.695312 19.710938 L 55.476562 20.722656 L 55.296875 21.191406 L 55.082031 21.480469 L 54.898438 21.625 L 54.828125 21.660156 L 54.539062 21.660156 L 54.25 21.515625 L 54.035156 21.226562 L 53.890625 20.902344 L 53.746094 20.25 L 53.707031 19.566406 L 53.527344 19.746094 L 53.238281 20.25 L 52.804688 20.867188 L 52.445312 21.371094 L 52.046875 21.839844 L 51.796875 22.128906 L 51.324219 22.488281 L 51 22.632812 L 50.785156 22.632812 L 50.566406 22.488281 L 50.386719 22.164062 L 50.242188 21.625 L 50.136719 20.757812 L 50.097656 19.710938 L 49.519531 20.578125 L 49.195312 20.9375 L 48.90625 21.226562 L 48.402344 21.515625 L 48.003906 21.515625 L 47.714844 21.371094 L 47.5 21.082031 L 47.320312 20.648438 L 47.246094 20.433594 L 47.175781 19.890625 L 46.777344 20.9375 L 46.34375 21.984375 L 46.054688 22.5625 L 45.765625 23.066406 L 45.441406 23.429688 L 45.261719 23.535156 L 45.082031 23.574219 L 44.828125 23.464844 L 44.574219 23.25 L 44.359375 22.816406 L 44.25 22.417969 L 44.179688 21.875 L 44.179688 21.082031 L 44.324219 20.109375 L 44.574219 18.84375 L 44.683594 18.050781 L 44.683594 17.617188 L 44.613281 17.253906 L 44.324219 17.253906 L 43.996094 17.398438 L 43.78125 17.582031 L 43.710938 17.582031 L 43.636719 17.726562 L 43.382812 18.050781 L 43.058594 18.734375 L 42.84375 19.492188 L 42.734375 20.179688 L 42.734375 21.226562 L 42.625 21.441406 L 42.335938 21.625 L 42.046875 21.660156 L 41.867188 21.515625 L 41.757812 21.191406 L 41.6875 20.722656 L 41.6875 19.820312 L 41.507812 20 L 41.183594 20.539062 L 40.785156 20.972656 L 40.425781 21.296875 L 40.097656 21.480469 L 39.953125 21.515625 L 39.628906 21.515625 L 39.414062 21.40625 L 39.234375 21.226562 L 39.015625 20.902344 L 38.835938 20.324219 L 38.761719 19.78125 L 38.402344 20.46875 L 37.933594 21.371094 L 37.679688 21.769531 L 37.390625 22.164062 L 37.066406 22.5625 L 36.742188 22.851562 L 36.453125 22.996094 L 36.164062 22.996094 L 35.949219 22.851562 L 35.730469 22.5625 L 35.621094 22.09375 L 35.621094 21.191406 L 35.804688 20 L 36.054688 18.773438 L 36.308594 17.726562 L 36.34375 17.4375 L 36.128906 17.4375 L 36.054688 17.652344 L 35.765625 18.265625 L 35.476562 19.132812 L 35.117188 20.757812 L 34.902344 21.296875 L 34.71875 21.480469 L 34.539062 21.625 L 34.394531 21.660156 L 34.144531 21.660156 L 33.890625 21.515625 L 33.671875 21.191406 L 33.492188 20.757812 L 33.382812 20.289062 L 33.3125 19.636719 L 33.097656 19.964844 L 32.699219 20.539062 L 32.085938 21.15625 L 31.722656 21.40625 L 31.328125 21.585938 L 31.074219 21.660156 L 30.785156 21.660156 L 30.460938 21.585938 L 30.0625 21.371094 L 29.59375 20.902344 L 29.304688 20.394531 L 29.160156 20.070312 L 29.089844 19.675781 L 29.089844 19.242188 L 29.195312 18.699219 L 29.414062 18.15625 L 29.667969 17.726562 L 29.957031 17.363281 L 30.207031 17.109375 L 30.570312 16.894531 L 30.820312 16.824219 L 31.074219 16.824219 L 31.328125 16.929688 L 31.507812 17.109375 L 31.652344 17.4375 L 31.652344 17.761719 L 31.542969 18.085938 L 31.289062 18.410156 L 31.144531 18.484375 L 30.964844 18.484375 L 30.894531 18.410156 L 30.929688 18.195312 L 31.21875 17.90625 L 31.289062 17.761719 L 31.253906 17.4375 L 31.21875 17.398438 L 31.003906 17.398438 L 30.640625 17.726562 L 30.425781 18.015625 L 30.242188 18.375 L 30.136719 18.734375 L 30.097656 18.988281 L 30.097656 19.421875 L 30.171875 19.855469 L 30.316406 20.179688 L 30.460938 20.394531 L 30.714844 20.683594 L 31.039062 20.867188 L 31.289062 20.902344 L 31.617188 20.828125 L 32.050781 20.578125 L 32.480469 20.179688 L 32.808594 19.820312 L 33.132812 19.3125 L 33.277344 19.023438 L 33.3125 18.808594 L 33.382812 17.253906 L 33.566406 15.738281 L 33.746094 14.765625 L 33.960938 14.042969 L 34.179688 13.5 L 34.46875 12.996094 L 34.863281 12.5625 L 35.191406 12.347656 Z M 35.585938 12.238281 " fill-opacity="1" fill-rule="nonzero"/><path fill="#111c23" d="M 17.609375 9.457031 L 18.910156 9.457031 L 19.957031 9.566406 L 21.003906 9.78125 L 21.976562 10.109375 L 22.878906 10.542969 L 23.710938 11.046875 L 24.144531 11.371094 L 24.648438 11.769531 L 24.863281 11.949219 L 25.117188 12.238281 L 25.335938 12.597656 L 25.371094 12.996094 L 25.226562 13.355469 L 24.972656 13.683594 L 24.683594 13.863281 L 24.359375 13.933594 L 24.070312 13.898438 L 23.746094 13.71875 L 23.277344 13.320312 L 22.734375 12.921875 L 22.15625 12.5625 L 21.4375 12.164062 L 20.714844 11.875 L 20.101562 11.695312 L 19.269531 11.550781 L 18.910156 11.515625 L 17.535156 11.515625 L 16.707031 11.625 L 15.949219 11.804688 L 15.15625 12.09375 L 14.46875 12.417969 L 13.78125 12.851562 L 13.132812 13.355469 L 12.554688 13.898438 L 12.300781 14.1875 L 11.90625 14.65625 L 11.542969 15.160156 L 11.183594 15.8125 L 10.929688 16.351562 L 10.640625 17.21875 L 10.460938 18.085938 L 10.390625 18.664062 L 10.390625 20.144531 L 10.496094 20.902344 L 10.714844 21.804688 L 11.003906 22.5625 L 11.292969 23.140625 L 11.617188 23.679688 L 11.976562 24.152344 L 12.375 24.621094 L 12.699219 24.980469 L 12.988281 25.234375 L 13.3125 25.523438 L 13.964844 25.992188 L 14.503906 26.316406 L 15.082031 26.605469 L 15.695312 26.820312 L 16.488281 27.039062 L 17.464844 27.183594 L 17.898438 27.21875 L 18.582031 27.21875 L 19.414062 27.148438 L 20.316406 26.964844 L 21.398438 26.605469 L 22.085938 26.28125 L 22.664062 25.917969 L 23.242188 25.484375 L 23.746094 25.089844 L 24.035156 24.945312 L 24.144531 24.910156 L 24.46875 24.910156 L 24.792969 25.015625 L 25.082031 25.234375 L 25.296875 25.558594 L 25.371094 25.8125 L 25.335938 26.207031 L 25.152344 26.53125 L 24.722656 26.964844 L 24.214844 27.363281 L 23.710938 27.722656 L 23.167969 28.050781 L 22.628906 28.339844 L 21.722656 28.699219 L 20.785156 28.988281 L 19.773438 29.203125 L 18.800781 29.3125 L 17.644531 29.3125 L 16.921875 29.242188 L 16.019531 29.058594 L 15.117188 28.808594 L 14.289062 28.519531 L 13.242188 28.011719 L 12.484375 27.507812 L 11.832031 27.003906 L 11.292969 26.496094 L 10.824219 26.027344 L 10.171875 25.234375 L 9.8125 24.726562 L 9.488281 24.1875 L 9.199219 23.609375 L 8.910156 22.921875 L 8.585938 21.949219 L 8.367188 20.972656 L 8.257812 20.109375 L 8.257812 18.589844 L 8.367188 17.726562 L 8.585938 16.785156 L 8.980469 15.59375 L 9.378906 14.730469 L 9.847656 13.933594 L 10.246094 13.394531 L 10.570312 12.996094 L 10.96875 12.5625 L 11.292969 12.203125 L 11.582031 11.949219 L 11.941406 11.625 L 12.628906 11.117188 L 13.3125 10.683594 L 13.964844 10.324219 L 14.648438 10.035156 L 15.335938 9.820312 L 16.273438 9.601562 L 17.066406 9.496094 Z M 17.609375 9.457031 " fill-opacity="1" fill-rule="nonzero"/><path fill="#ffffff" d="M 35.804688 12.960938 L 35.910156 12.960938 L 35.875 13.285156 L 35.515625 14.222656 L 35.082031 15.160156 L 34.792969 15.738281 L 34.648438 15.957031 L 34.613281 15.957031 L 34.613281 15.703125 L 34.792969 14.871094 L 35.007812 14.152344 L 35.226562 13.609375 L 35.441406 13.25 L 35.585938 13.066406 Z M 35.804688 12.960938 " fill-opacity="1" fill-rule="nonzero"/><path fill="#ffffff" d="M 56.054688 12.960938 L 56.199219 12.960938 L 56.199219 13.25 L 55.875 14.1875 L 55.40625 15.269531 L 55.117188 15.847656 L 54.972656 15.917969 L 55.007812 15.523438 L 55.226562 14.585938 L 55.476562 13.824219 L 55.730469 13.320312 Z M 56.054688 12.960938 " fill-opacity="1" fill-rule="nonzero"/><path fill="#111c23" d="M 37.175781 24.835938 L 37.355469 24.871094 L 37.535156 25.015625 L 37.789062 25.414062 L 38.148438 25.847656 L 38.222656 25.882812 L 38.1875 25.523438 L 38.1875 25.015625 L 38.257812 24.871094 L 38.402344 24.910156 L 38.4375 24.980469 L 38.4375 26.425781 L 38.332031 26.496094 L 38.078125 26.28125 L 37.644531 25.628906 L 37.429688 25.34375 L 37.355469 25.304688 L 37.355469 26.460938 L 37.140625 26.460938 L 37.101562 26.425781 L 37.101562 24.910156 Z M 37.175781 24.835938 " fill-opacity="1" fill-rule="nonzero"/><path fill="#111c23" d="M 43.058594 24.835938 L 43.636719 24.835938 L 43.710938 24.871094 L 43.710938 25.015625 L 43.09375 25.054688 L 43.023438 25.089844 L 43.023438 25.378906 L 43.058594 25.523438 L 43.167969 25.484375 L 43.421875 25.484375 L 43.566406 25.628906 L 43.492188 25.703125 L 43.023438 25.773438 L 42.988281 26.101562 L 43.023438 26.28125 L 43.710938 26.28125 L 43.710938 26.460938 L 43.601562 26.53125 L 43.238281 26.570312 L 42.878906 26.496094 L 42.769531 26.351562 L 42.734375 25.8125 L 42.769531 24.980469 L 42.84375 24.871094 Z M 43.058594 24.835938 " fill-opacity="1" fill-rule="nonzero"/><path fill="#111c23" d="M 48.148438 15.558594 L 48.472656 15.632812 L 48.582031 15.738281 L 48.617188 15.917969 L 48.511719 16.136719 L 48.183594 16.351562 L 48.003906 16.390625 L 47.753906 16.390625 L 47.535156 16.246094 L 47.464844 16.027344 L 47.570312 15.8125 L 47.824219 15.667969 Z M 48.148438 15.558594 " fill-opacity="1" fill-rule="nonzero"/><path fill="#111c23" d="M 39.703125 15.558594 L 40.097656 15.632812 L 40.171875 15.738281 L 40.171875 15.992188 L 40.027344 16.207031 L 39.664062 16.390625 L 39.414062 16.390625 L 39.195312 16.316406 L 39.125 16.207031 L 39.125 15.917969 L 39.269531 15.738281 L 39.558594 15.59375 Z M 39.703125 15.558594 " fill-opacity="1" fill-rule="nonzero"/><path fill="#111c23" d="M 29.558594 24.835938 L 29.992188 24.871094 L 30.027344 25.015625 L 29.882812 25.054688 L 29.339844 25.054688 L 29.339844 25.59375 L 29.414062 25.558594 L 29.882812 25.558594 L 29.882812 25.703125 L 29.738281 25.738281 L 29.304688 25.738281 L 29.304688 26.460938 L 29.269531 26.496094 L 29.089844 26.496094 L 29.050781 26.425781 L 29.050781 24.980469 L 29.125 24.871094 Z M 29.558594 24.835938 " fill-opacity="1" fill-rule="nonzero"/><path fill="#111c23" d="M 33.167969 24.910156 L 33.347656 24.910156 L 33.421875 25.054688 L 33.382812 26.460938 L 33.347656 26.496094 L 33.167969 26.496094 L 33.132812 25.160156 L 33.132812 24.945312 Z M 33.167969 24.910156 " fill-opacity="1" fill-rule="nonzero"/></svg>