<svg xmlns="http://www.w3.org/2000/svg" xmlns:xlink="http://www.w3.org/1999/xlink" width="100" zoomAndPan="magnify" viewBox="0 0 75 37.5" height="50" preserveAspectRatio="xMidYMid meet" version="1.0"><defs><clipPath id="17540b300c"><path d="M 0.492188 0 L 74.503906 0 L 74.503906 37.007812 L 0.492188 37.007812 Z M 0.492188 0 " clip-rule="nonzero"/></clipPath></defs><g clip-path="url(#17540b300c)"><path fill="#ffffff" d="M 0.492188 0 L 74.507812 0 L 74.507812 37.007812 L 0.492188 37.007812 Z M 0.492188 0 " fill-opacity="1" fill-rule="nonzero"/><path fill="#ffffff" d="M 0.492188 0 L 74.507812 0 L 74.507812 37.007812 L 0.492188 37.007812 Z M 0.492188 0 " fill-opacity="1" fill-rule="nonzero"/><path fill="#111c23" d="M 0.535156 0 L 74.464844 0 L 74.464844 37.007812 L 0.535156 37.007812 Z M 0.535156 0 " fill-opacity="1" fill-rule="nonzero"/></g><path fill="#ffffff" d="M 35.585938 12.300781 L 35.949219 12.335938 L 36.128906 12.480469 L 36.238281 12.734375 L 36.238281 13.171875 L 36.054688 13.894531 L 35.730469 14.65625 L 35.40625 15.347656 L 34.972656 16.144531 L 34.574219 16.871094 L 34.503906 17.050781 L 34.429688 17.777344 L 34.429688 19.953125 L 34.46875 20.644531 L 34.46875 21.117188 L 34.613281 21.042969 L 34.757812 20.679688 L 35.226562 18.792969 L 35.550781 17.8125 L 35.839844 17.234375 L 35.984375 17.050781 L 36.34375 16.835938 L 36.777344 16.835938 L 36.996094 16.980469 L 37.210938 17.234375 L 37.320312 17.523438 L 37.320312 18.214844 L 37.140625 19.191406 L 36.777344 20.789062 L 36.597656 21.839844 L 36.5625 22.238281 L 36.777344 22.203125 L 36.957031 22.023438 L 37.210938 21.730469 L 37.5 21.332031 L 37.96875 20.570312 L 38.332031 19.917969 L 38.617188 19.335938 L 38.726562 18.9375 L 38.90625 17.449219 L 39.015625 17.015625 L 39.195312 16.871094 L 39.304688 16.835938 L 39.558594 16.835938 L 39.882812 17.015625 L 39.917969 17.234375 L 39.773438 18.46875 L 39.738281 18.902344 L 39.738281 20.0625 L 39.808594 20.644531 L 39.953125 20.933594 L 40.207031 21.007812 L 40.53125 20.824219 L 40.855469 20.5 L 41.21875 19.953125 L 41.433594 19.589844 L 41.652344 19.121094 L 41.6875 18.867188 L 41.796875 17.449219 L 41.902344 16.542969 L 42.011719 16.363281 L 42.085938 16.289062 L 42.445312 16.289062 L 42.734375 16.398438 L 42.769531 16.433594 L 42.769531 17.050781 L 42.664062 18.429688 L 42.664062 18.757812 L 43.09375 17.851562 L 43.347656 17.449219 L 43.636719 17.160156 L 43.925781 16.980469 L 44.179688 16.871094 L 44.394531 16.835938 L 44.757812 16.835938 L 45.117188 16.941406 L 45.40625 17.160156 L 45.621094 17.597656 L 45.660156 18.175781 L 45.550781 19.121094 L 45.1875 21.007812 L 45.117188 21.550781 L 45.117188 22.3125 L 45.226562 22.601562 L 45.332031 22.675781 L 45.515625 22.675781 L 45.765625 22.347656 L 46.054688 21.769531 L 46.597656 20.460938 L 46.921875 19.738281 L 47.101562 19.121094 L 47.210938 18.359375 L 47.320312 17.414062 L 47.425781 16.980469 L 47.570312 16.835938 L 47.898438 16.835938 L 48.183594 16.941406 L 48.292969 17.089844 L 48.292969 17.488281 L 48.183594 18.214844 L 48.113281 19.410156 L 48.113281 19.917969 L 48.183594 20.535156 L 48.328125 20.898438 L 48.472656 21.007812 L 48.691406 20.96875 L 48.90625 20.824219 L 49.195312 20.535156 L 49.628906 19.882812 L 49.917969 19.410156 L 50.0625 19.082031 L 50.097656 18.9375 L 50.207031 17.234375 L 50.277344 16.363281 L 49.59375 16 L 49.414062 15.855469 L 49.375 15.671875 L 49.484375 15.601562 L 49.808594 15.671875 L 50.242188 15.925781 L 50.351562 15.964844 L 50.386719 15.382812 L 50.460938 15.164062 L 50.53125 15.128906 L 50.929688 15.128906 L 51.289062 15.238281 L 51.363281 15.3125 L 51.363281 15.636719 L 51.289062 16.179688 L 51.832031 16.109375 L 52.265625 16 L 52.734375 15.746094 L 53.09375 15.417969 L 53.417969 15.164062 L 53.671875 15.128906 L 53.671875 15.347656 L 53.203125 15.820312 L 52.660156 16.21875 L 52.15625 16.433594 L 51.796875 16.507812 L 51.324219 16.542969 L 51.253906 16.582031 L 51.144531 18.46875 L 51.144531 21.117188 L 51.21875 21.476562 L 51.398438 21.660156 L 51.613281 21.660156 L 52.085938 21.222656 L 52.480469 20.789062 L 53.347656 19.628906 L 53.492188 19.445312 L 53.636719 19.121094 L 53.671875 18.902344 L 53.78125 17.089844 L 53.925781 15.78125 L 54.070312 14.949219 L 54.285156 14.148438 L 54.503906 13.605469 L 54.792969 13.097656 L 55.042969 12.769531 L 55.40625 12.480469 L 55.765625 12.335938 L 56.273438 12.335938 L 56.488281 12.515625 L 56.597656 12.84375 L 56.5625 13.277344 L 56.34375 14.003906 L 55.910156 14.984375 L 55.515625 15.820312 L 55.042969 16.652344 L 54.863281 16.980469 L 54.792969 17.488281 L 54.753906 18.066406 L 54.753906 19.917969 L 54.792969 20.460938 L 54.792969 21.078125 L 54.972656 21.007812 L 55.117188 20.679688 L 55.515625 19.046875 L 55.800781 18.03125 L 56.089844 17.34375 L 56.273438 17.089844 L 56.597656 16.871094 L 56.667969 16.835938 L 57.101562 16.835938 L 57.355469 16.980469 L 57.535156 17.195312 L 57.644531 17.488281 L 57.644531 18.25 L 57.464844 19.265625 L 57.101562 20.933594 L 56.957031 21.878906 L 56.957031 22.238281 L 57.175781 22.203125 L 57.570312 21.695312 L 58.003906 21.078125 L 58.511719 20.246094 L 58.835938 19.664062 L 59.050781 19.011719 L 59.195312 18.539062 L 59.414062 18.105469 L 59.738281 17.667969 L 60.097656 17.304688 L 60.566406 17.015625 L 61.109375 16.871094 L 61.578125 16.90625 L 62.011719 17.015625 L 62.191406 17.195312 L 62.226562 17.34375 L 62.15625 17.414062 L 61.507812 17.414062 L 61.144531 17.597656 L 60.785156 17.960938 L 60.496094 18.429688 L 60.242188 18.976562 L 60.097656 19.554688 L 60.097656 20.425781 L 60.242188 20.824219 L 60.351562 20.96875 L 60.566406 20.96875 L 60.855469 20.714844 L 61.179688 20.207031 L 61.46875 19.664062 L 61.9375 18.574219 L 62.265625 17.8125 L 62.554688 17.304688 L 62.734375 17.160156 L 62.949219 17.195312 L 63.203125 17.34375 L 63.347656 17.488281 L 63.417969 17.886719 L 63.382812 18.648438 L 63.203125 20.101562 L 63.09375 20.933594 L 63.058594 21.40625 L 63.058594 22.09375 L 63.09375 22.203125 L 63.273438 22.023438 L 63.601562 21.332031 L 64.175781 20.027344 L 64.539062 19.191406 L 64.609375 19.011719 L 64.753906 18.902344 L 64.828125 19.046875 L 64.648438 19.664062 L 64.285156 20.679688 L 63.746094 21.949219 L 63.417969 22.53125 L 63.09375 22.964844 L 62.804688 23.183594 L 62.625 23.21875 L 62.410156 23.074219 L 62.226562 22.785156 L 62.121094 22.347656 L 62.082031 22.023438 L 62.082031 21.441406 L 62.191406 20.246094 L 62.371094 19.011719 L 62.515625 18.175781 L 62.226562 18.828125 L 61.832031 19.738281 L 61.398438 20.570312 L 60.964844 21.152344 L 60.710938 21.40625 L 60.277344 21.625 L 59.953125 21.660156 L 59.664062 21.515625 L 59.414062 21.261719 L 59.230469 20.898438 L 59.050781 20.28125 L 58.980469 20.136719 L 58.617188 20.824219 L 58.328125 21.371094 L 58.003906 21.878906 L 57.714844 22.277344 L 57.464844 22.601562 L 57.175781 22.894531 L 56.886719 23.074219 L 56.777344 23.109375 L 56.488281 23.109375 L 56.273438 22.964844 L 56.089844 22.710938 L 55.984375 22.347656 L 55.945312 22.09375 L 55.945312 21.441406 L 56.128906 20.136719 L 56.453125 18.613281 L 56.667969 17.742188 L 56.667969 17.449219 L 56.488281 17.558594 L 56.164062 18.175781 L 55.910156 18.9375 L 55.695312 19.808594 L 55.476562 20.824219 L 55.296875 21.296875 L 55.082031 21.585938 L 54.898438 21.730469 L 54.828125 21.769531 L 54.539062 21.769531 L 54.25 21.625 L 54.035156 21.332031 L 53.890625 21.007812 L 53.746094 20.355469 L 53.707031 19.664062 L 53.527344 19.84375 L 53.238281 20.355469 L 52.804688 20.96875 L 52.445312 21.476562 L 52.046875 21.949219 L 51.796875 22.238281 L 51.324219 22.601562 L 51 22.75 L 50.785156 22.75 L 50.566406 22.601562 L 50.386719 22.277344 L 50.242188 21.730469 L 50.136719 20.863281 L 50.097656 19.808594 L 49.519531 20.679688 L 49.195312 21.042969 L 48.90625 21.332031 L 48.402344 21.625 L 48.003906 21.625 L 47.714844 21.476562 L 47.5 21.1875 L 47.320312 20.753906 L 47.246094 20.535156 L 47.175781 19.992188 L 46.777344 21.042969 L 46.34375 22.09375 L 46.054688 22.675781 L 45.765625 23.183594 L 45.441406 23.546875 L 45.261719 23.65625 L 45.082031 23.691406 L 44.828125 23.582031 L 44.574219 23.363281 L 44.359375 22.929688 L 44.25 22.53125 L 44.179688 21.984375 L 44.179688 21.1875 L 44.324219 20.207031 L 44.574219 18.9375 L 44.683594 18.140625 L 44.683594 17.707031 L 44.613281 17.34375 L 44.324219 17.34375 L 43.996094 17.488281 L 43.78125 17.667969 L 43.710938 17.667969 L 43.636719 17.8125 L 43.382812 18.140625 L 43.058594 18.828125 L 42.84375 19.589844 L 42.734375 20.28125 L 42.734375 21.332031 L 42.625 21.550781 L 42.335938 21.730469 L 42.046875 21.769531 L 41.867188 21.625 L 41.757812 21.296875 L 41.6875 20.824219 L 41.6875 19.917969 L 41.507812 20.101562 L 41.183594 20.644531 L 40.785156 21.078125 L 40.425781 21.40625 L 40.097656 21.585938 L 39.953125 21.625 L 39.628906 21.625 L 39.414062 21.515625 L 39.234375 21.332031 L 39.015625 21.007812 L 38.835938 20.425781 L 38.761719 19.882812 L 38.402344 20.570312 L 37.933594 21.476562 L 37.679688 21.878906 L 37.390625 22.277344 L 37.066406 22.675781 L 36.742188 22.964844 L 36.453125 23.109375 L 36.164062 23.109375 L 35.949219 22.964844 L 35.730469 22.675781 L 35.621094 22.203125 L 35.621094 21.296875 L 35.804688 20.101562 L 36.054688 18.867188 L 36.308594 17.8125 L 36.34375 17.523438 L 36.128906 17.523438 L 36.054688 17.742188 L 35.765625 18.359375 L 35.476562 19.230469 L 35.117188 20.863281 L 34.902344 21.40625 L 34.71875 21.585938 L 34.539062 21.730469 L 34.394531 21.769531 L 34.144531 21.769531 L 33.890625 21.625 L 33.671875 21.296875 L 33.492188 20.863281 L 33.382812 20.390625 L 33.3125 19.738281 L 33.097656 20.0625 L 32.699219 20.644531 L 32.085938 21.261719 L 31.722656 21.515625 L 31.328125 21.695312 L 31.074219 21.769531 L 30.785156 21.769531 L 30.460938 21.695312 L 30.0625 21.476562 L 29.59375 21.007812 L 29.304688 20.5 L 29.160156 20.171875 L 29.089844 19.773438 L 29.089844 19.335938 L 29.195312 18.792969 L 29.414062 18.25 L 29.667969 17.8125 L 29.957031 17.449219 L 30.207031 17.195312 L 30.570312 16.980469 L 30.820312 16.90625 L 31.074219 16.90625 L 31.328125 17.015625 L 31.507812 17.195312 L 31.652344 17.523438 L 31.652344 17.851562 L 31.542969 18.175781 L 31.289062 18.503906 L 31.144531 18.574219 L 30.964844 18.574219 L 30.894531 18.503906 L 30.929688 18.285156 L 31.21875 17.996094 L 31.289062 17.851562 L 31.253906 17.523438 L 31.21875 17.488281 L 31.003906 17.488281 L 30.640625 17.8125 L 30.425781 18.105469 L 30.242188 18.46875 L 30.136719 18.828125 L 30.097656 19.082031 L 30.097656 19.519531 L 30.171875 19.953125 L 30.316406 20.28125 L 30.460938 20.5 L 30.714844 20.789062 L 31.039062 20.96875 L 31.289062 21.007812 L 31.617188 20.933594 L 32.050781 20.679688 L 32.480469 20.28125 L 32.808594 19.917969 L 33.132812 19.410156 L 33.277344 19.121094 L 33.3125 18.902344 L 33.382812 17.34375 L 33.566406 15.820312 L 33.746094 14.839844 L 33.960938 14.113281 L 34.179688 13.570312 L 34.46875 13.0625 L 34.863281 12.625 L 35.191406 12.40625 Z M 35.585938 12.300781 " fill-opacity="1" fill-rule="nonzero"/><path fill="#ffffff" d="M 17.609375 9.503906 L 18.910156 9.503906 L 19.957031 9.613281 L 21.003906 9.832031 L 21.976562 10.160156 L 22.878906 10.59375 L 23.710938 11.101562 L 24.144531 11.429688 L 24.648438 11.828125 L 24.863281 12.007812 L 25.117188 12.300781 L 25.335938 12.660156 L 25.371094 13.0625 L 25.226562 13.425781 L 24.972656 13.75 L 24.683594 13.933594 L 24.359375 14.003906 L 24.070312 13.96875 L 23.746094 13.785156 L 23.277344 13.386719 L 22.734375 12.988281 L 22.15625 12.625 L 21.4375 12.226562 L 20.714844 11.9375 L 20.101562 11.753906 L 19.269531 11.609375 L 18.910156 11.574219 L 17.535156 11.574219 L 16.707031 11.683594 L 15.949219 11.863281 L 15.15625 12.152344 L 14.46875 12.480469 L 13.78125 12.917969 L 13.132812 13.425781 L 12.554688 13.96875 L 12.300781 14.257812 L 11.90625 14.730469 L 11.542969 15.238281 L 11.183594 15.890625 L 10.929688 16.433594 L 10.640625 17.304688 L 10.460938 18.175781 L 10.390625 18.757812 L 10.390625 20.246094 L 10.496094 21.007812 L 10.714844 21.914062 L 11.003906 22.675781 L 11.292969 23.257812 L 11.617188 23.800781 L 11.976562 24.273438 L 12.375 24.742188 L 12.699219 25.105469 L 12.988281 25.359375 L 13.3125 25.652344 L 13.964844 26.121094 L 14.503906 26.449219 L 15.082031 26.738281 L 15.695312 26.957031 L 16.488281 27.175781 L 17.464844 27.320312 L 17.898438 27.355469 L 18.582031 27.355469 L 19.414062 27.285156 L 20.316406 27.101562 L 21.398438 26.738281 L 22.085938 26.414062 L 22.664062 26.050781 L 23.242188 25.613281 L 23.746094 25.214844 L 24.035156 25.070312 L 24.144531 25.035156 L 24.46875 25.035156 L 24.792969 25.144531 L 25.082031 25.359375 L 25.296875 25.6875 L 25.371094 25.941406 L 25.335938 26.339844 L 25.152344 26.667969 L 24.722656 27.101562 L 24.214844 27.5 L 23.710938 27.863281 L 23.167969 28.191406 L 22.628906 28.480469 L 21.722656 28.84375 L 20.785156 29.132812 L 19.773438 29.351562 L 18.800781 29.460938 L 17.644531 29.460938 L 16.921875 29.386719 L 16.019531 29.207031 L 15.117188 28.953125 L 14.289062 28.660156 L 13.242188 28.152344 L 12.484375 27.644531 L 11.832031 27.136719 L 11.292969 26.628906 L 10.824219 26.160156 L 10.171875 25.359375 L 9.8125 24.851562 L 9.488281 24.308594 L 9.199219 23.726562 L 8.910156 23.039062 L 8.585938 22.058594 L 8.367188 21.078125 L 8.257812 20.207031 L 8.257812 18.683594 L 8.367188 17.8125 L 8.585938 16.871094 L 8.980469 15.671875 L 9.378906 14.800781 L 9.847656 14.003906 L 10.246094 13.460938 L 10.570312 13.0625 L 10.96875 12.625 L 11.292969 12.261719 L 11.582031 12.007812 L 11.941406 11.683594 L 12.628906 11.175781 L 13.3125 10.738281 L 13.964844 10.375 L 14.648438 10.085938 L 15.335938 9.867188 L 16.273438 9.652344 L 17.066406 9.542969 Z M 17.609375 9.503906 " fill-opacity="1" fill-rule="nonzero"/><path fill="#111c23" d="M 35.804688 13.023438 L 35.910156 13.023438 L 35.875 13.351562 L 35.515625 14.292969 L 35.082031 15.238281 L 34.792969 15.820312 L 34.648438 16.035156 L 34.613281 16.035156 L 34.613281 15.78125 L 34.792969 14.949219 L 35.007812 14.222656 L 35.226562 13.679688 L 35.441406 13.316406 L 35.585938 13.132812 Z M 35.804688 13.023438 " fill-opacity="1" fill-rule="nonzero"/><path fill="#111c23" d="M 56.054688 13.023438 L 56.199219 13.023438 L 56.199219 13.316406 L 55.875 14.257812 L 55.40625 15.347656 L 55.117188 15.925781 L 54.972656 16 L 55.007812 15.601562 L 55.226562 14.65625 L 55.476562 13.894531 L 55.730469 13.386719 Z M 56.054688 13.023438 " fill-opacity="1" fill-rule="nonzero"/><path fill="#ffffff" d="M 37.175781 24.960938 L 37.355469 24.996094 L 37.535156 25.144531 L 37.789062 25.542969 L 38.148438 25.976562 L 38.222656 26.011719 L 38.1875 25.652344 L 38.1875 25.144531 L 38.257812 24.996094 L 38.402344 25.035156 L 38.4375 25.105469 L 38.4375 26.558594 L 38.332031 26.628906 L 38.078125 26.414062 L 37.644531 25.757812 L 37.429688 25.46875 L 37.355469 25.433594 L 37.355469 26.59375 L 37.140625 26.59375 L 37.101562 26.558594 L 37.101562 25.035156 Z M 37.175781 24.960938 " fill-opacity="1" fill-rule="nonzero"/><path fill="#ffffff" d="M 43.058594 24.960938 L 43.636719 24.960938 L 43.710938 24.996094 L 43.710938 25.144531 L 43.09375 25.179688 L 43.023438 25.214844 L 43.023438 25.503906 L 43.058594 25.652344 L 43.167969 25.613281 L 43.421875 25.613281 L 43.566406 25.757812 L 43.492188 25.832031 L 43.023438 25.90625 L 42.988281 26.230469 L 43.023438 26.414062 L 43.710938 26.414062 L 43.710938 26.59375 L 43.601562 26.667969 L 43.238281 26.703125 L 42.878906 26.628906 L 42.769531 26.484375 L 42.734375 25.941406 L 42.769531 25.105469 L 42.84375 24.996094 Z M 43.058594 24.960938 " fill-opacity="1" fill-rule="nonzero"/><path fill="#ffffff" d="M 48.148438 15.636719 L 48.472656 15.710938 L 48.582031 15.820312 L 48.617188 16 L 48.511719 16.21875 L 48.183594 16.433594 L 48.003906 16.472656 L 47.753906 16.472656 L 47.535156 16.328125 L 47.464844 16.109375 L 47.570312 15.890625 L 47.824219 15.746094 Z M 48.148438 15.636719 " fill-opacity="1" fill-rule="nonzero"/><path fill="#ffffff" d="M 39.703125 15.636719 L 40.097656 15.710938 L 40.171875 15.820312 L 40.171875 16.074219 L 40.027344 16.289062 L 39.664062 16.472656 L 39.414062 16.472656 L 39.195312 16.398438 L 39.125 16.289062 L 39.125 16 L 39.269531 15.820312 L 39.558594 15.671875 Z M 39.703125 15.636719 " fill-opacity="1" fill-rule="nonzero"/><path fill="#ffffff" d="M 29.558594 24.960938 L 29.992188 24.996094 L 30.027344 25.144531 L 29.882812 25.179688 L 29.339844 25.179688 L 29.339844 25.722656 L 29.414062 25.6875 L 29.882812 25.6875 L 29.882812 25.832031 L 29.738281 25.867188 L 29.304688 25.867188 L 29.304688 26.59375 L 29.269531 26.628906 L 29.089844 26.628906 L 29.050781 26.558594 L 29.050781 25.105469 L 29.125 24.996094 Z M 29.558594 24.960938 " fill-opacity="1" fill-rule="nonzero"/><path fill="#ffffff" d="M 33.167969 25.035156 L 33.347656 25.035156 L 33.421875 25.179688 L 33.382812 26.59375 L 33.347656 26.628906 L 33.167969 26.628906 L 33.132812 25.289062 L 33.132812 25.070312 Z M 33.167969 25.035156 " fill-opacity="1" fill-rule="nonzero"/></svg>